PathFileType	4	(X/Y/Z)	/Users/niels/Desktop/University/Third Semester/Perception and Action/Exam/Gymnastics Motion Tracking/Code for Gym Tracking/Analyzed Data/Webcam_Backflip/id1_2_baseline_Sports2D/id1_2_baseline_Sports2D_px_person00.trc
DataRate	CameraRate	NumFrames	NumMarkers	Units	OrigDataRate	OrigDataStartFrame	OrigNumFrames
29.874476987447697	29.874476987447697	12	22	m	29.874476987447697	179	239
Frame#	Time	Hip			RHip			RKnee			RAnkle			RBigToe			RSmallToe			RHeel			LHip			LKnee			LAnkle			LBigToe			LSmallToe			LHeel			Neck			Head			Nose			RShoulder			RElbow			RWrist			LShoulder			LElbow			LWrist		
		X1	Y1	Z1	X2	Y2	Z2	X3	Y3	Z3	X4	Y4	Z4	X5	Y5	Z5	X6	Y6	Z6	X7	Y7	Z7	X8	Y8	Z8	X9	Y9	Z9	X10	Y10	Z10	X11	Y11	Z11	X12	Y12	Z12	X13	Y13	Z13	X14	Y14	Z14	X15	Y15	Z15	X16	Y16	Z16	X17	Y17	Z17	X18	Y18	Z18	X19	Y19	Z19	X20	Y20	Z20	X21	Y21	Z21	X22	Y22	Z22
179	5.991736694677871	0.9012373927095363	-0.6055403731744199	0.0	0.8934190566732668	-0.6020253818397658	0.0	0.8957782812506317	-0.7063664579873072	0.0	0.8841389825118209	-0.8174101468030629	0.0	0.9298681995901523	-0.8324227783059979	0.0	0.92048249556792	-0.8352340940078694	0.0	0.876338824935339	-0.8332390594495022	0.0	0.9103868710994729	-0.6027385553166696	0.0	0.902072925676644	-0.7069894480585515	0.0	0.8882770145296545	-0.8144459998338086	0.0	0.9336051332307819	-0.8325417157252826	0.0	0.9298949809031968	-0.8300422124448829	0.0	0.8759274234484433	-0.8286876363092979	0.0	0.9108229387247885	-0.4331970264987185	0.0	0.93803344089776	-0.36710768341570316	0.0	0.9413228079669633	-0.41039530251285167	0.0	0.8812962507421442	-0.4557643769881486	0.0	0.8688420380859553	-0.5344103706482636	0.0	0.8974158743112425	-0.601929556356125	0.0	0.9148573465543587	-0.4608597732841654	0.0	0.906756949366028	-0.5358908102706239	0.0	0.9234186465121683	-0.6056540876015406	0.0
180	6.025210084033613	0.9015149627928501	-0.6050558586270418	0.0	0.8934813769343422	-0.6017419548529953	0.0	0.8961237030489809	-0.7061178720406559	0.0	0.8839640793530269	-0.8174036874824654	0.0	0.9296130491662138	-0.8324824615002122	0.0	0.9197754916047889	-0.8350945238256953	0.0	0.8762892844683418	-0.8327114837233291	0.0	0.9105443370732682	-0.6026924518625589	0.0	0.9024922412110978	-0.7068352515412963	0.0	0.8882555046561179	-0.8145368350088028	0.0	0.9335094897128395	-0.8328734694076734	0.0	0.9299788135332656	-0.8302430486806123	0.0	0.8759137716525308	-0.8282883881831535	0.0	0.9110245475702812	-0.43290157977073157	0.0	0.9371363232197666	-0.36690687111243714	0.0	0.9395754299733361	-0.4097948958240493	0.0	0.8807567350226946	-0.4556730033474633	0.0	0.8690860705714358	-0.5341657843136051	0.0	0.8991703289311574	-0.6006552721565853	0.0	0.9159462160061692	-0.46098063162541747	0.0	0.9062356360913729	-0.5347246757718607	0.0	0.9220183292464116	-0.6043826471550747	0.0
181	6.0586834733893555	0.9019361999965669	-0.6045218649156435	0.0	0.8936454166531231	-0.6012306151609565	0.0	0.8965512040352902	-0.7058236093969281	0.0	0.8838530405620156	-0.8175715722847987	0.0	0.9294398366303621	-0.8328111623777024	0.0	0.9192488975380131	-0.8353937655402748	0.0	0.8763630344934932	-0.8325780645076983	0.0	0.91095479457934	-0.6023821676766383	0.0	0.9028964290194418	-0.7066907907869516	0.0	0.8881905260112222	-0.8148047115370011	0.0	0.9334358639097649	-0.8334347699321425	0.0	0.9300428562750119	-0.8307168674782357	0.0	0.8759896972694754	-0.8282836152794507	0.0	0.9113330738577643	-0.43284076457406895	0.0	0.936454874322822	-0.3668756647460163	0.0	0.9382846312873119	-0.40931760658670696	0.0	0.8803529034406095	-0.4556873414610567	0.0	0.8692282827254791	-0.5339569344931518	0.0	0.9006191269692821	-0.5996204551713543	0.0	0.9172879621994228	-0.46125894978603327	0.0	0.9060955047994954	-0.5339097077963355	0.0	0.9211560294273228	-0.6031874527282186	0.0
182	6.092156862745098	0.9025180447083844	-0.6040607795757713	0.0	0.8939120661928204	-0.6005810981297138	0.0	0.8969789543392733	-0.7055697226433739	0.0	0.8838523873904737	-0.8178240935599005	0.0	0.9294094850298756	-0.833299018333702	0.0	0.9190045902603261	-0.8359431810818654	0.0	0.8765408816035293	-0.8327606669712205	0.0	0.9117249551673018	-0.6019194436913108	0.0	0.903232299977403	-0.7065962654111113	0.0	0.8881021386147975	-0.8151622004043948	0.0	0.9334604971539435	-0.834095289293274	0.0	0.9301405137186702	-0.8313277862039621	0.0	0.8760986090526804	-0.8285502976726022	0.0	0.9117715591814735	-0.4329599037606413	0.0	0.9359708525824402	-0.3669568542717524	0.0	0.9373652952889323	-0.4089639653555111	0.0	0.8801216488262723	-0.45578134892186684	0.0	0.8693307691899101	-0.5338272273701931	0.0	0.9017244101087272	-0.5989420970880729	0.0	0.9188458367263328	-0.4616470951934175	0.0	0.9065707492193302	-0.5335281858225348	0.0	0.9210945859771184	-0.6025302025222496	0.0
183	6.12563025210084	0.9032736089787187	-0.6037599519655561	0.0	0.8942767702134304	-0.5999179780244216	0.0	0.8973192255206028	-0.7054486722828192	0.0	0.8839696430024107	-0.8180564770289233	0.0	0.9295470196962082	-0.8338661361605875	0.0	0.919067407827725	-0.8365572923709633	0.0	0.8768025616497166	-0.8331193014318939	0.0	0.9128581471326312	-0.6014607575023266	0.0	0.9034789763330173	-0.7065900317643357	0.0	0.8880387263449482	-0.8154913750070915	0.0	0.93362433955846	-0.8347427042233154	0.0	0.9303116061230928	-0.8319309598582861	0.0	0.8762019577493001	-0.8289502482177564	0.0	0.912345709511005	-0.433200094900342	0.0	0.9356584713613245	-0.3670835448903082	0.0	0.936730945851741	-0.4087154325440859	0.0	0.8800506823814861	-0.4559272045967587	0.0	0.8694551549946218	-0.5337902086181889	0.0	0.9024433272032776	-0.5986548482791315	0.0	0.920566450107197	-0.46211602716503725	0.0	0.9077929078615881	-0.5336228145740529	0.0	0.9220081544836042	-0.6026612555815332	0.0
184	6.159103641456582	0.9042062603147722	-0.6036205970700202	0.0	0.8947550854244051	-0.5993003529281539	0.0	0.8975222882405027	-0.7055015022433587	0.0	0.8841797656587129	-0.8182072558944681	0.0	0.9298474774856084	-0.8344890242413221	0.0	0.9194165479931039	-0.8371313860302408	0.0	0.8771180081246464	-0.8335245918225268	0.0	0.9142550137078156	-0.6010711403707705	0.0	0.9036485018689449	-0.706680283647232	0.0	0.8880551152030534	-0.8157115551996202	0.0	0.9339274640449101	-0.8353079765911491	0.0	0.930590736977571	-0.8324361997499158	0.0	0.8763107752735618	-0.8293879364909587	0.0	0.9130233774131624	-0.4334925447240155	0.0	0.9354947431435151	-0.3671869946786283	0.0	0.9363198544266466	-0.40854457412719986	0.0	0.8801012665978948	-0.45608922543930513	0.0	0.8696473494249345	-0.533825621932655	0.0	0.902740689357445	-0.5987298829850444	0.0	0.9223781722020744	-0.46263664179158753	0.0	0.9098195131843814	-0.5342214225041801	0.0	0.9239680769595989	-0.6036023206858481	0.0
185	6.192577030812325	0.9052902389855834	-0.6035659084416695	0.0	0.8953778930970899	-0.5987621271078498	0.0	0.8976082319276165	-0.7057206863372155	0.0	0.8844539687036734	-0.8182647205048664	0.0	0.9303009136230914	-0.8351584132313132	0.0	0.9200379958553233	-0.8376645003936873	0.0	0.8774509017442059	-0.8339146230504989	0.0	0.9157295429037321	-0.6007411520720289	0.0	0.9037628125574018	-0.7068438366951706	0.0	0.8881869338141035	-0.8158100509804357	0.0	0.9343623204104208	-0.8357527193590262	0.0	0.9310097026192863	-0.832831447228555	0.0	0.8764737933368731	-0.8298039828619455	0.0	0.9137372777557196	-0.4337644594156998	0.0	0.9354332445540036	-0.36720706748142273	0.0	0.936076044064849	-0.4084232292883684	0.0	0.8802315665261561	-0.456231011275857	0.0	0.8699186165164865	-0.5338803188114334	0.0	0.9026058905639518	-0.5990831252135874	0.0	0.9241940508690177	-0.4631560397657312	0.0	0.9126204346101716	-0.5353104134546147	0.0	0.9269034541784328	-0.6051559544770237	0.0
186	6.226050420168067	0.9064604415329031	-0.6035192537640665	0.0	0.8961627064232808	-0.5984246490701334	0.0	0.8976615705706357	-0.7060730311818142	0.0	0.8847824084100737	-0.8182456478890574	0.0	0.9309024814178238	-0.8358424037949342	0.0	0.9209119859792589	-0.838217498668966	0.0	0.877775910360622	-0.8342877664407337	0.0	0.917051201973524	-0.6005162006548532	0.0	0.903841610920056	-0.707043943374203	0.0	0.8884493323562145	-0.81582172650788	0.0	0.9349103171913451	-0.836071553792132	0.0	0.9315548428829912	-0.8331534439769827	0.0	0.8767309336173139	-0.8301616125875394	0.0	0.914411050796779	-0.43396185324357456	0.0	0.9353808935931023	-0.3671003522581349	0.0	0.9359441656640173	-0.40830133856407846	0.0	0.8804217308944194	-0.45632084938481726	0.0	0.8702398180996861	-0.5338794958604685	0.0	0.9020473643293194	-0.599576059509262	0.0	0.9259125633972501	-0.46359473948633817	0.0	0.9159946789036841	-0.536756439108602	0.0	0.9305613361611199	-0.6069095676552861	0.0
187	6.2595238095238095	0.9076436784406462	-0.6034749816003979	0.0	0.8971125202137826	-0.5984893731073785	0.0	0.8977865663266177	-0.7065111456370866	0.0	0.8851567897276045	-0.8181713253633235	0.0	0.9316189217617115	-0.8364922422547663	0.0	0.9219638513076001	-0.8388288977975641	0.0	0.878091636719016	-0.8346490420795725	0.0	0.9180548813997078	-0.600538707151137	0.0	0.9038984960117097	-0.7072519577972904	0.0	0.8888295078694798	-0.8157960510333536	0.0	0.9355130724856942	-0.8362954352282602	0.0	0.9321404981597343	-0.8334297201748352	0.0	0.8770709996862934	-0.8304442580911988	0.0	0.9149910440792156	-0.434050726061253	0.0	0.9352237290214008	-0.366841228092171	0.0	0.9358711726027091	-0.40809629798080377	0.0	0.880695798100593	-0.45631550957147393	0.0	0.8705518917197337	-0.5337607414132906	0.0	0.9010805795318639	-0.6000330584123558	0.0	0.9274431760002324	-0.46386115233931036	0.0	0.919536270899992	-0.5382691983696561	0.0	0.9345337604624341	-0.6083303423263229	0.0
188	6.292997198879552	0.9088003401769313	-0.6034737829822022	0.0	0.8982250571013252	-0.5990736110040007	0.0	0.898051188451768	-0.706971061576476	0.0	0.8855407935717269	-0.8180422014073221	0.0	0.9323702918441853	-0.8370465410634496	0.0	0.9230666809581801	-0.8394552358260713	0.0	0.8784168772052291	-0.8349715261657218	0.0	0.9187311351771738	-0.6009224204202478	0.0	0.9039419631834519	-0.7074569630877143	0.0	0.8892695093830091	-0.8157636197473493	0.0	0.9360794095889968	-0.8364605029342062	0.0	0.932658332173263	-0.8336469262907746	0.0	0.8774406785881056	-0.8306345031309889	0.0	0.9154553422790525	-0.4340024727195107	0.0	0.9348784454194643	-0.36642747173893964	0.0	0.9358003694028014	-0.40773656300846156	0.0	0.8811000252829525	-0.4561542549454521	0.0	0.8707804501229094	-0.5335060920667064	0.0	0.8997351326681364	-0.6003084394416048	0.0	0.9287606460559255	-0.46388172925553145	0.0	0.9227945518672037	-0.5395034775688635	0.0	0.9384092651270879	-0.6089865822681408	0.0
189	6.326470588235294	0.9099126903829309	-0.6035235603181669	0.0	0.8994631798684639	-0.6000777298771286	0.0	0.8984511670437108	-0.7073632922592166	0.0	0.8858756572310341	-0.8178365390497502	0.0	0.9330707076119285	-0.8374318062166265	0.0	0.924090836727273	-0.8399906739301549	0.0	0.8787599577568533	-0.8352044153850804	0.0	0.9191797932874685	-0.6016278996040534	0.0	0.9039847794937571	-0.7076397922429138	0.0	0.8896736425013241	-0.8157229434848687	0.0	0.9365215779298792	-0.8365689366364599	0.0	0.9330436440389192	-0.8337723784672414	0.0	0.8777819825457945	-0.8307076362318967	0.0	0.9158027852981684	-0.43379921539371286	0.0	0.9343158964552919	-0.36588736769146823	0.0	0.935664685235859	-0.40721582159204744	0.0	0.8816380851271418	-0.45580275717818813	0.0	0.870851852435596	-0.5331426074098055	0.0	0.8980961797973358	-0.6003598107158087	0.0	0.9299154425266928	-0.4636397063485239	0.0	0.9255225399245712	-0.5402263663117653	0.0	0.9419457651820252	-0.6087303209850067	0.0
190	6.359943977591036	0.910944358570156	-0.6035583775784318	0.0	0.9007192752089125	-0.601181062116834	0.0	0.8989281065688659	-0.7075837387039721	0.0	0.8861164207426919	-0.8175480975012663	0.0	0.9336756384678256	-0.8375986110068119	0.0	0.9249555582154504	-0.8403341177656369	0.0	0.8790898259289861	-0.8353073032508314	0.0	0.9195154280645376	-0.6024361261427477	0.0	0.9040623706356083	-0.707743208918255	0.0	0.8899530220453491	-0.8156582422082655	0.0	0.9367971688799341	-0.8365938669723	0.0	0.9332957307685613	-0.833791428308161	0.0	0.8780541306435706	-0.8306584698169659	0.0	0.9160430394821025	-0.43343582097422584	0.0	0.9335588762658016	-0.36525962745769935	0.0	0.935392816194498	-0.4065978318810767	0.0	0.8822298084702734	-0.4552994927630618	0.0	0.8707118266334546	-0.5327273261086204	0.0	0.8963469474070261	-0.6002409683927612	0.0	0.930967360498804	-0.4631778829150018	0.0	0.9277300097860928	-0.5403836807533823	0.0	0.9451010517717382	-0.6077025262363697	0.0
